<?xml version="1.0" standalone="no"?><!DOCTYPE svg PUBLIC "-//W3C//DTD SVG 1.1//EN" "http://www.w3.org/Graphics/SVG/1.1/DTD/svg11.dtd"><svg t="1707747877144" class="icon" viewBox="0 0 1024 1024" version="1.1" xmlns="http://www.w3.org/2000/svg" p-id="1649" xmlns:xlink="http://www.w3.org/1999/xlink" width="200" height="200"><path d="M628.649386 431.672578v72.64393c0 26.542974 15.366985 33.527967 36.321965 15.366984l155.066848-145.287858c5.587995-5.587995 5.587995-15.366985 0-20.954979l-155.066848-135.508868c-20.95498-18.160982-36.321965-9.77899-36.321965 16.763984V307.3397c-146.684857 0-293.369714 82.42292-293.369713 219.328786 0 2.793997 99.186903-94.995907 293.369713-94.995908z m-342.264666 120.141883c-26.542974 0-48.894952 22.351978-48.894952 48.894952v146.684857c0 26.542974 22.351978 48.894952 48.894952 48.894952h488.949523c26.542974 0 48.894952-22.351978 48.894952-48.894952V600.709413c0-26.542974-22.351978-48.894952-48.894952-48.894952S726.439291 574.166439 726.439291 600.709413v74.040928c0 13.969986-11.175989 23.748977-25.145976 23.748977H360.425648c-13.969986 0-25.145975-11.175989-25.145975-23.748977V600.709413c0-26.542974-22.351978-48.894952-48.894953-48.894952z" p-id="1650"></path></svg>